<svg t="1708321618186" class="icon" viewBox="0 0 1024 1024" version="1.1" xmlns="http://www.w3.org/2000/svg" p-id="921" width="200" height="200"><path d="M896 160a32 32 0 1 0 64 0V128h32a32 32 0 1 0 0-64h-32V32a32 32 0 1 0-64 0v32h-32a32 32 0 1 0 0 64h32v32zM64 992a32 32 0 1 0 64 0v-32h32a32 32 0 1 0 0-64H128v-32a32 32 0 1 0-64 0v32H32a32 32 0 1 0 0 64h32v32z" p-id="922"></path><path d="M512 192C335.264 192 192 335.264 192 512s143.264 320 320 320 320-143.264 320-320c0-7.36-0.32-14.464-0.768-21.184l-3.008-46.912-42.56 20.032a169.6 169.6 0 0 1-225.6-225.6l20.032-42.56-46.912-3.008C526.464 192.32 519.36 192 512 192zM256 512a256.032 256.032 0 0 1 230.08-254.72L480 310.4a233.6 233.6 0 0 0 286.72 227.52A256.032 256.032 0 0 1 256 512z" p-id="923"></path></svg>